<svg width="28" height="24" viewBox="0 0 28 24" fill="none" xmlns="http://www.w3.org/2000/svg">
<path d="M10.0909 9.61364H26.4545C26.6045 9.61364 26.7273 9.49091 26.7273 9.34091V7.43182C26.7273 7.28182 26.6045 7.15909 26.4545 7.15909H10.0909C9.94091 7.15909 9.81818 7.28182 9.81818 7.43182V9.34091C9.81818 9.49091 9.94091 9.61364 10.0909 9.61364ZM9.81818 16.5682C9.81818 16.7182 9.94091 16.8409 10.0909 16.8409H26.4545C26.6045 16.8409 26.7273 16.7182 26.7273 16.5682V14.6591C26.7273 14.5091 26.6045 14.3864 26.4545 14.3864H10.0909C9.94091 14.3864 9.81818 14.5091 9.81818 14.6591V16.5682ZM27 0H0.272727C0.122727 0 0 0.122727 0 0.272727V2.18182C0 2.33182 0.122727 2.45455 0.272727 2.45455H27C27.15 2.45455 27.2727 2.33182 27.2727 2.18182V0.272727C27.2727 0.122727 27.15 0 27 0ZM27 21.5455H0.272727C0.122727 21.5455 0 21.6682 0 21.8182V23.7273C0 23.8773 0.122727 24 0.272727 24H27C27.15 24 27.2727 23.8773 27.2727 23.7273V21.8182C27.2727 21.6682 27.15 21.5455 27 21.5455ZM1.03636 16.4352L6.36477 12.2386C6.40065 12.2104 6.42965 12.1745 6.4496 12.1334C6.46954 12.0924 6.4799 12.0473 6.4799 12.0017C6.4799 11.9561 6.46954 11.911 6.4496 11.87C6.42965 11.8289 6.40065 11.793 6.36477 11.7648L1.03636 7.56477C0.838636 7.40795 0.545455 7.54773 0.545455 7.8V16.1966C0.545436 16.2535 0.561441 16.3093 0.591638 16.3576C0.621835 16.4059 0.665006 16.4447 0.716215 16.4696C0.767425 16.4945 0.824605 16.5044 0.88122 16.4984C0.937835 16.4923 0.991598 16.4704 1.03636 16.4352Z" fill="#C1C1C1"/>
</svg>
