<svg width="50" height="50" viewBox="0 0 50 50" fill="none" xmlns="http://www.w3.org/2000/svg">
<path d="M25 12.1812C17.9063 12.1812 12.1813 17.9062 12.1813 25C12.1813 32.0937 17.9063 37.8187 25 37.8187C32.0938 37.8187 37.8188 32.0937 37.8188 25C37.8188 17.9062 32.0938 12.1812 25 12.1812ZM25 33.3312C20.4125 33.3312 16.6688 29.5875 16.6688 25C16.6688 20.4125 20.4125 16.6687 25 16.6687C29.5875 16.6687 33.3313 20.4125 33.3313 25C33.3313 29.5875 29.5875 33.3312 25 33.3312ZM38.3438 8.6687C36.6875 8.6687 35.35 10.0062 35.35 11.6625C35.35 13.3187 36.6875 14.6562 38.3438 14.6562C40 14.6562 41.3375 13.325 41.3375 11.6625C41.338 11.2692 41.2609 10.8797 41.1106 10.5162C40.9604 10.1528 40.7399 9.82255 40.4618 9.54445C40.1837 9.26636 39.8534 9.04586 39.49 8.89559C39.1266 8.74531 38.737 8.66821 38.3438 8.6687V8.6687ZM49.9875 25C49.9875 21.55 50.0188 18.1312 49.825 14.6875C49.6313 10.6875 48.7188 7.13745 45.7938 4.21245C42.8625 1.2812 39.3188 0.374955 35.3188 0.181205C31.8688 -0.0125454 28.45 0.0187047 25.0063 0.0187047C21.5563 0.0187047 18.1375 -0.0125454 14.6938 0.181205C10.6938 0.374955 7.14376 1.28745 4.21876 4.21245C1.28751 7.1437 0.381257 10.6875 0.187507 14.6875C-0.00624348 18.1375 0.0250066 21.5562 0.0250066 25C0.0250066 28.4437 -0.00624348 31.8687 0.187507 35.3125C0.381257 39.3125 1.29376 42.8625 4.21876 45.7875C7.15001 48.7187 10.6938 49.625 14.6938 49.8187C18.1438 50.0125 21.5625 49.9812 25.0063 49.9812C28.4563 49.9812 31.875 50.0125 35.3188 49.8187C39.3188 49.625 42.8688 48.7125 45.7938 45.7875C48.725 42.8562 49.6313 39.3125 49.825 35.3125C50.025 31.8687 49.9875 28.45 49.9875 25V25ZM44.4875 39.7375C44.0313 40.875 43.4813 41.725 42.6 42.6C41.7188 43.4812 40.875 44.0312 39.7375 44.4875C36.45 45.7937 28.6438 45.5 25 45.5C21.3563 45.5 13.5438 45.7937 10.2563 44.4937C9.11876 44.0375 8.26876 43.4875 7.39376 42.6062C6.51251 41.725 5.96251 40.8812 5.50626 39.7437C4.20626 36.45 4.50001 28.6437 4.50001 25C4.50001 21.3562 4.20626 13.5437 5.50626 10.2562C5.96251 9.1187 6.51251 8.2687 7.39376 7.3937C8.27501 6.5187 9.11876 5.96246 10.2563 5.50621C13.5438 4.20621 21.3563 4.49995 25 4.49995C28.6438 4.49995 36.4563 4.20621 39.7438 5.50621C40.8813 5.96246 41.7313 6.51245 42.6063 7.3937C43.4875 8.27495 44.0375 9.1187 44.4938 10.2562C45.7938 13.5437 45.5 21.3562 45.5 25C45.5 28.6437 45.7938 36.45 44.4875 39.7375Z" fill="#7B9ECB"/>
</svg>