<svg width="28" height="24" viewBox="0 0 28 24" fill="none" xmlns="http://www.w3.org/2000/svg">
<path d="M10.0909 9.61364H26.4545C26.6045 9.61364 26.7273 9.49091 26.7273 9.34091V7.43182C26.7273 7.28182 26.6045 7.15909 26.4545 7.15909H10.0909C9.94091 7.15909 9.81818 7.28182 9.81818 7.43182V9.34091C9.81818 9.49091 9.94091 9.61364 10.0909 9.61364ZM9.81818 16.5682C9.81818 16.7182 9.94091 16.8409 10.0909 16.8409H26.4545C26.6045 16.8409 26.7273 16.7182 26.7273 16.5682V14.6591C26.7273 14.5091 26.6045 14.3864 26.4545 14.3864H10.0909C9.94091 14.3864 9.81818 14.5091 9.81818 14.6591V16.5682ZM27 0H0.272727C0.122727 0 0 0.122727 0 0.272727V2.18182C0 2.33182 0.122727 2.45455 0.272727 2.45455H27C27.15 2.45455 27.2727 2.33182 27.2727 2.18182V0.272727C27.2727 0.122727 27.15 0 27 0ZM27 21.5455H0.272727C0.122727 21.5455 0 21.6682 0 21.8182V23.7273C0 23.8773 0.122727 24 0.272727 24H27C27.15 24 27.2727 23.8773 27.2727 23.7273V21.8182C27.2727 21.6682 27.15 21.5455 27 21.5455ZM0.115909 12.2352L5.44432 16.4318C5.64205 16.5886 5.93523 16.4489 5.93523 16.1966V7.80341C5.93523 7.55114 5.64546 7.41136 5.44432 7.56818L0.115909 11.7648C0.0800803 11.7926 0.0510881 11.8283 0.0311448 11.8691C0.0112016 11.9098 0.000834378 11.9546 0.000834378 12C0.000834378 12.0454 0.0112016 12.0902 0.0311448 12.1309C0.0510881 12.1717 0.0800803 12.2074 0.115909 12.2352Z" fill="#C1C1C1"/>
</svg>
