<svg width="64" height="64" viewBox="0 0 64 64" fill="none" xmlns="http://www.w3.org/2000/svg">
<path d="M44.5938 37.4938C43.9125 37.1438 40.5188 35.4812 39.8875 35.2562C39.2563 35.0187 38.7938 34.9063 38.3375 35.6063C37.875 36.3 36.5625 37.8438 36.15 38.3125C35.75 38.775 35.3438 38.8312 34.6625 38.4875C30.6125 36.4625 27.9563 34.875 25.2875 30.2938C24.5813 29.075 25.9938 29.1625 27.3125 26.5312C27.5375 26.0687 27.425 25.675 27.25 25.325C27.075 24.975 25.7 21.5875 25.125 20.2062C24.5688 18.8625 23.9938 19.05 23.575 19.025C23.175 19 22.7188 19 22.2563 19C21.7938 19 21.05 19.175 20.4188 19.8563C19.7875 20.55 18.0063 22.2188 18.0063 25.6063C18.0063 28.9938 20.475 32.275 20.8125 32.7375C21.1625 33.2 25.6688 40.15 32.5875 43.1437C36.9625 45.0312 38.675 45.1938 40.8625 44.8688C42.1938 44.6688 44.9375 43.2063 45.5063 41.5875C46.075 39.975 46.075 38.5938 45.9063 38.3063C45.7375 38 45.275 37.825 44.5938 37.4938Z" fill="#7B9ECB"/>
<path d="M57.825 21.15C56.4125 17.7937 54.3875 14.7812 51.8063 12.1938C49.225 9.6125 46.2125 7.58125 42.85 6.175C39.4125 4.73125 35.7625 4 32 4H31.875C28.0875 4.01875 24.4188 4.76875 20.9688 6.24375C17.6375 7.66875 14.65 9.69375 12.0938 12.275C9.5375 14.8562 7.53125 17.8563 6.14375 21.2C4.70625 24.6625 3.98125 28.3437 4 32.1312C4.01875 36.4688 5.05625 40.775 7 44.625V54.125C7 55.7125 8.2875 57 9.875 57H19.3813C23.2313 58.9437 27.5375 59.9813 31.875 60H32.0063C35.75 60 39.3813 59.275 42.8 57.8563C46.1438 56.4625 49.15 54.4625 51.725 51.9062C54.3063 49.35 56.3375 46.3625 57.7563 43.0312C59.2313 39.5812 59.9813 35.9125 60 32.125C60.0188 28.3188 59.2813 24.625 57.825 21.15ZM48.3813 48.525C44 52.8625 38.1875 55.25 32 55.25H31.8938C28.125 55.2313 24.3813 54.2938 21.075 52.5312L20.55 52.25H11.75V43.45L11.4688 42.925C9.70625 39.6187 8.76875 35.875 8.75 32.1063C8.725 25.875 11.1063 20.025 15.475 15.6187C19.8375 11.2125 25.6688 8.775 31.9 8.75H32.0063C35.1313 8.75 38.1625 9.35625 41.0188 10.5562C43.8063 11.725 46.3063 13.4062 48.4563 15.5562C50.6 17.7 52.2875 20.2062 53.4563 22.9937C54.6688 25.8813 55.275 28.9438 55.2625 32.1063C55.225 38.3312 52.7813 44.1625 48.3813 48.525Z" fill="#7B9ECB"/>
</svg>
